<svg width="20" height="20" viewBox="0 0 20 20" fill="none" xmlns="http://www.w3.org/2000/svg">
<path opacity="0.4" d="M16.6119 4.50001C16.3819 4.20101 16.1379 3.91001 15.8639 3.63601C12.3489 0.121006 6.65094 0.121006 3.13594 3.63601C2.86194 3.91001 2.61894 4.20101 2.38794 4.50001" stroke="#00AEFF" stroke-width="1.5" stroke-linecap="round" stroke-linejoin="round"/>
<path opacity="0.4" d="M2.38794 15.5C2.61794 15.799 2.86194 16.09 3.13594 16.364C6.65094 19.879 12.3489 19.879 15.8639 16.364C16.1379 16.09 16.3809 15.799 16.6119 15.5" stroke="#00AEFF" stroke-width="1.5" stroke-linecap="round" stroke-linejoin="round"/>
<path fill-rule="evenodd" clip-rule="evenodd" d="M4.021 12.571H1V10.04H4.019C4.718 10.04 5.285 10.607 5.285 11.306V11.306C5.286 12.005 4.719 12.571 4.021 12.571Z" stroke="#00AEFF" stroke-width="1.5" stroke-linecap="round" stroke-linejoin="round"/>
<path d="M1 10.04V7.42896H3.7C4.421 7.42896 5.006 8.01396 5.006 8.73496V8.73496C5.006 9.45596 4.421 10.041 3.7 10.041" stroke="#00AEFF" stroke-width="1.5" stroke-linecap="round" stroke-linejoin="round"/>
<path d="M14.7139 7.42896L16.8569 10.344L18.9999 7.42896" stroke="#00AEFF" stroke-width="1.5" stroke-linecap="round" stroke-linejoin="round"/>
<path d="M16.8599 12.53V10.34" stroke="#00AEFF" stroke-width="1.5" stroke-linecap="round" stroke-linejoin="round"/>
<path d="M12.1429 7.42896V10.429C12.1429 11.612 11.1839 12.572 9.99993 12.572V12.572C8.81693 12.572 7.85693 11.613 7.85693 10.429V7.42896" stroke="#00AEFF" stroke-width="1.5" stroke-linecap="round" stroke-linejoin="round"/>
</svg>
