<svg width="20" height="20" viewBox="0 0 20 20" fill="none" xmlns="http://www.w3.org/2000/svg">
<path d="M20 3.30435C20 2.43478 19.6667 1.66667 19 1C18.3333 0.333333 17.5652 0 16.6957 0H3.30435C2.43478 0 1.66667 0.333333 1 1C0.333333 1.66667 0 2.43478 0 3.30435V16.6957C0 17.5652 0.333333 18.3333 1 19C1.66667 19.6667 2.43478 20 3.30435 20H10V12.4348H7.56522V9.13043H10V7.82609C10 6.69565 10.3696 5.7029 11.1087 4.84783C11.8478 3.99275 12.7246 3.56522 13.7391 3.56522H16.4348V6.86957H13.7391C13.5942 6.86957 13.4565 6.95652 13.3261 7.13043C13.1957 7.30435 13.1304 7.52174 13.1304 7.78261V9.13043H16.4348V12.4348H13.1304V20H16.6957C17.5652 20 18.3333 19.6667 19 19C19.6667 18.3333 20 17.5652 20 16.6957V3.30435Z" fill="#020203"/>
</svg>
