<svg width="24" height="24" viewBox="0 0 24 24" fill="none" xmlns="http://www.w3.org/2000/svg">
<path fill-rule="evenodd" clip-rule="evenodd" d="M19.849 16.396C20.579 15.096 21 13.598 21 12C21 7.029 16.971 3 12 3C7.029 3 3 7.029 3 12C3 16.971 7.029 21 12 21C13.598 21 15.096 20.579 16.396 19.849L21 21L19.849 16.396Z" stroke="#61CDFF" stroke-width="1.5882" stroke-linecap="round" stroke-linejoin="round"/>
<path d="M11.823 12.323C11.921 12.225 12.079 12.225 12.177 12.323C12.275 12.421 12.275 12.579 12.177 12.677C12.079 12.775 11.921 12.775 11.823 12.677C11.726 12.579 11.726 12.421 11.823 12.323" stroke="#61CDFF" stroke-width="1.5" stroke-linecap="round" stroke-linejoin="round"/>
<path d="M7.82299 12.323C7.92099 12.225 8.07899 12.225 8.17699 12.323C8.27499 12.421 8.27499 12.579 8.17699 12.677C8.07899 12.775 7.92099 12.775 7.82299 12.677C7.72599 12.579 7.72599 12.421 7.82299 12.323" stroke="#61CDFF" stroke-width="1.5" stroke-linecap="round" stroke-linejoin="round"/>
<path d="M15.823 12.323C15.921 12.225 16.079 12.225 16.177 12.323C16.275 12.421 16.275 12.579 16.177 12.677C16.079 12.775 15.921 12.775 15.823 12.677C15.726 12.579 15.726 12.421 15.823 12.323" stroke="#61CDFF" stroke-width="1.5" stroke-linecap="round" stroke-linejoin="round"/>
</svg>
