<svg width="20" height="24" viewBox="0 0 20 24" fill="none" xmlns="http://www.w3.org/2000/svg">
<path d="M17.9214 16.734C18.1482 16.8248 18.3436 16.9796 18.4839 17.1795C18.6099 17.367 18.6984 17.5935 18.7539 17.859C18.7839 18.015 18.8199 18.159 18.8589 18.294C18.9325 18.547 19.0432 18.7876 19.1874 19.008C19.2579 19.1175 19.3524 19.2375 19.4694 19.371C19.5699 19.4805 19.6599 19.6215 19.7394 19.7925C19.8127 19.9463 19.8521 20.1141 19.8549 20.2845C19.8607 20.4483 19.8116 20.6093 19.7154 20.742C19.6176 20.8708 19.4983 20.9819 19.3629 21.0705C19.1829 21.195 18.9954 21.3045 18.8004 21.399C18.6054 21.492 18.4104 21.5895 18.2154 21.6915C17.9239 21.8304 17.6453 21.9951 17.3829 22.1835C17.1489 22.356 16.9134 22.5735 16.6794 22.8405C16.4066 23.1461 16.0908 23.4104 15.7419 23.625C15.5638 23.738 15.3703 23.8249 15.1674 23.883C14.9724 23.937 14.7774 23.973 14.5824 23.988C14.1294 23.988 13.7544 23.91 13.4574 23.754C13.1604 23.598 12.9024 23.313 12.6834 22.899C12.6204 22.7805 12.5589 22.707 12.4959 22.6755C12.3987 22.6343 12.2962 22.6065 12.1914 22.593L11.0049 22.5C10.6149 22.47 10.2174 22.4535 9.81094 22.4535C9.47333 22.454 9.13629 22.481 8.80294 22.5345C8.45944 22.59 8.11894 22.656 7.78294 22.734C7.71394 22.749 7.64344 22.809 7.57294 22.9095C7.48516 23.0314 7.38678 23.1454 7.27894 23.25C7.13281 23.3891 6.96252 23.5005 6.77644 23.5785C6.51127 23.6821 6.2286 23.7335 5.94394 23.73C5.68594 23.73 5.40844 23.703 5.11144 23.649C4.83359 23.6007 4.5649 23.5096 4.31494 23.379C3.86404 23.1484 3.38277 22.9827 2.88544 22.887C2.41594 22.8015 1.92094 22.722 1.39744 22.653C1.22393 22.6304 1.0517 22.5989 0.88144 22.5585C0.724159 22.5229 0.576013 22.455 0.44644 22.359C0.327537 22.2711 0.228403 22.1591 0.15544 22.0305C0.0754519 21.8666 0.0348725 21.6863 0.0369405 21.504C0.0369405 21.261 0.0684404 21.027 0.13144 20.8005C0.19444 20.5755 0.228941 20.3355 0.236441 20.0865C0.236441 19.914 0.224441 19.746 0.201941 19.5825C0.177134 19.4074 0.161114 19.2312 0.15394 19.0545C0.15394 18.657 0.24844 18.3645 0.43594 18.1755C0.62344 17.988 0.89644 17.8395 1.25644 17.73C1.41637 17.6816 1.56699 17.6065 1.70194 17.508C1.82574 17.4146 1.94301 17.3129 2.05294 17.2035C2.16455 17.0914 2.26642 16.9699 2.35744 16.8405C2.45194 16.707 2.55694 16.5735 2.67394 16.4415C2.69728 16.4115 2.70995 16.3745 2.70994 16.3365C2.70994 16.242 2.70544 16.152 2.69794 16.0665L2.67394 15.7845C2.67394 15.2535 2.75644 14.7195 2.91994 14.1795C3.08494 13.6395 3.29944 13.1145 3.56494 12.597C3.83003 12.0826 4.12763 11.5856 4.45594 11.109C4.78294 10.6335 5.10844 10.191 5.42794 9.7845C5.86192 9.24119 6.20626 8.63201 6.44794 7.98C6.67294 7.356 6.79144 6.675 6.79894 5.94C6.79894 5.6295 6.78394 5.3205 6.75244 5.016C6.72097 4.7045 6.70545 4.39159 6.70594 4.0785C6.70594 3.453 6.77644 2.8905 6.91594 2.391C7.05694 1.89 7.27594 1.461 7.57294 1.101C7.86994 0.741 8.25694 0.4725 8.73244 0.2925C9.21094 0.1125 9.78094 0.015 10.4439 0C11.2344 0 11.8629 0.156 12.3324 0.4695C12.8004 0.7815 13.1604 1.191 13.4094 1.6995C13.6599 2.2065 13.8204 2.7735 13.8894 3.399C13.9614 4.023 14.0004 4.656 14.0079 5.2965V5.496C14.0079 5.817 14.0109 6.102 14.0199 6.351C14.0339 6.85724 14.1492 7.35555 14.3589 7.8165C14.4684 8.058 14.6319 8.3205 14.8509 8.601C15.2259 9.0945 15.6099 9.591 15.9999 10.0905C16.3899 10.59 16.7454 11.106 17.0649 11.6355C17.3859 12.168 17.6484 12.723 17.8509 13.3005C18.0549 13.8795 18.1599 14.5035 18.1674 15.1755C18.1695 15.7053 18.0864 16.232 17.9214 16.7355V16.734ZM8.09044 4.524C8.19844 4.524 8.28844 4.551 8.36044 4.605C8.43359 4.66388 8.48998 4.74095 8.52394 4.8285C8.56159 4.91859 8.58877 5.01271 8.60494 5.109C8.61994 5.2035 8.62894 5.301 8.62894 5.403C8.63139 5.46743 8.61907 5.53156 8.59294 5.5905C8.56724 5.6403 8.53149 5.68423 8.48794 5.7195L8.34694 5.8365C8.29667 5.87907 8.25001 5.92573 8.20744 5.976C8.15119 6.06358 8.07448 6.13616 7.98394 6.1875C7.89105 6.24142 7.80093 6.3 7.71394 6.363C7.63085 6.42329 7.55261 6.48999 7.47994 6.5625C7.44362 6.60166 7.41559 6.64775 7.39755 6.69802C7.3795 6.74829 7.37181 6.80168 7.37494 6.855C7.37494 6.9255 7.40944 6.984 7.47994 7.0305C7.65485 7.14066 7.79358 7.29974 7.87894 7.488C7.95694 7.668 8.04394 7.8435 8.13694 8.016C8.22994 8.187 8.35144 8.331 8.49994 8.4495C8.64844 8.5665 8.87944 8.625 9.18994 8.625H9.26194C9.57394 8.61 9.87094 8.5275 10.1529 8.379C10.4334 8.2305 10.7154 8.0745 10.9959 7.9095C11.0448 7.88203 11.096 7.85894 11.1489 7.8405C11.2034 7.82106 11.2545 7.79323 11.3004 7.758L12.1554 7.0905C12.1703 7.04022 12.1823 6.98914 12.1914 6.9375C12.2006 6.88267 12.2086 6.82766 12.2154 6.7725C12.2181 6.69793 12.1971 6.62443 12.1554 6.5625C12.1171 6.50809 12.0699 6.46044 12.0159 6.4215C11.956 6.38061 11.8879 6.35299 11.8164 6.3405C11.7449 6.32615 11.6747 6.30608 11.6064 6.2805C11.4195 6.24206 11.2407 6.17098 11.0784 6.0705C10.9173 5.97044 10.7439 5.89178 10.5624 5.8365C10.5324 5.8275 10.5084 5.805 10.4919 5.766C10.4741 5.71981 10.4586 5.67275 10.4454 5.625C10.43 5.57555 10.4259 5.52325 10.4334 5.472C10.442 5.43272 10.4378 5.39173 10.4214 5.355C10.4214 5.262 10.4289 5.1645 10.4454 5.0625C10.4616 4.95924 10.4973 4.85998 10.5504 4.77C10.5962 4.68666 10.6603 4.61484 10.7379 4.56C10.8304 4.50603 10.9354 4.47708 11.0424 4.476C11.2854 4.476 11.4609 4.566 11.5704 4.746C11.6799 4.926 11.7384 5.121 11.7459 5.331C11.7479 5.42434 11.7278 5.51683 11.6874 5.601C11.6474 5.68108 11.6268 5.76947 11.6274 5.859C11.6274 5.922 11.6484 5.964 11.6874 5.988C11.7347 6.0139 11.7868 6.02973 11.8404 6.0345C12.0204 6.0345 12.1359 5.9925 12.1914 5.907C12.2546 5.7879 12.2866 5.65478 12.2844 5.52C12.2844 5.34 12.2694 5.1405 12.2394 4.9215C12.2098 4.70962 12.1459 4.50396 12.0504 4.3125C11.963 4.1327 11.8394 3.97287 11.6874 3.843C11.5247 3.71368 11.3206 3.64761 11.1129 3.657C10.7079 3.657 10.4139 3.7575 10.2339 3.9615C10.0539 4.164 9.96094 4.4685 9.95344 4.875C9.95344 4.992 9.96094 5.109 9.97594 5.226C9.99094 5.3445 9.99994 5.4615 9.99994 5.5785C9.99994 5.6175 9.99544 5.637 9.98794 5.637C9.9636 5.63171 9.93995 5.62366 9.91744 5.613C9.87071 5.59405 9.82421 5.57455 9.77794 5.5545C9.7206 5.53029 9.66141 5.51072 9.60094 5.496C9.50125 5.47178 9.39773 5.4677 9.29644 5.484C9.23425 5.49189 9.17163 5.49589 9.10894 5.496C8.99944 5.496 8.94394 5.4765 8.94394 5.4375C8.94394 5.3205 8.93794 5.172 8.92144 4.992C8.90644 4.812 8.86744 4.632 8.80444 4.452C8.75206 4.29185 8.67294 4.14173 8.57044 4.008C8.47594 3.891 8.33644 3.828 8.14894 3.8205C8.02298 3.81759 7.90085 3.86386 7.80844 3.9495C7.71216 4.03858 7.6293 4.14115 7.56244 4.254C7.49056 4.37587 7.44651 4.51212 7.43344 4.653C7.42086 4.77834 7.40535 4.90338 7.38694 5.028C7.39296 5.23494 7.42831 5.43999 7.49194 5.637C7.53094 5.7615 7.57444 5.871 7.62094 5.9655C7.66744 6.0585 7.72294 6.105 7.78594 6.105C7.82344 6.105 7.87594 6.078 7.93744 6.024C8.00044 5.9685 8.03194 5.919 8.03194 5.871C8.03194 5.847 8.01994 5.832 7.99594 5.8245C7.97325 5.81669 7.94944 5.81264 7.92544 5.8125C7.87144 5.8125 7.82344 5.7855 7.78444 5.73C7.74425 5.6725 7.7129 5.6093 7.69144 5.5425C7.66682 5.46886 7.64332 5.39485 7.62094 5.3205C7.57422 5.11812 7.60359 4.90563 7.70344 4.7235C7.77394 4.5975 7.90294 4.5315 8.09044 4.524ZM5.53444 22.77C5.72194 22.77 5.90644 22.755 6.08644 22.722C6.26463 22.6914 6.43555 22.6278 6.59044 22.5345C6.73897 22.4486 6.86054 22.3228 6.94144 22.1715C7.02678 21.9958 7.07479 21.8042 7.08244 21.609C7.08245 21.4695 7.05861 21.331 7.01194 21.1995C6.96428 21.0654 6.89706 20.939 6.81244 20.8245C6.71986 20.6778 6.61816 20.537 6.50794 20.403C6.39767 20.2685 6.29597 20.1272 6.20344 19.98C6.05756 19.7656 5.91255 19.5506 5.76844 19.335C5.62894 19.125 5.48794 18.903 5.34844 18.6675C5.2251 18.4679 5.10755 18.2649 4.99594 18.0585C4.88125 17.8479 4.7477 17.648 4.59694 17.4615C4.50173 17.3426 4.39186 17.2363 4.26994 17.145C4.14469 17.0509 3.9916 17.0012 3.83494 17.004C3.67152 17.0016 3.51312 17.0605 3.39094 17.169C3.2513 17.2907 3.12186 17.4237 3.00394 17.5665C2.86563 17.7286 2.71681 17.8814 2.55844 18.024C2.39344 18.1725 2.18344 18.2895 1.92544 18.375C1.75085 18.4218 1.59024 18.5104 1.45744 18.633C1.34794 18.7425 1.29244 18.9105 1.29244 19.137C1.29244 19.293 1.30444 19.449 1.32844 19.605C1.35094 19.761 1.36744 19.9185 1.37494 20.0745C1.37494 20.2845 1.34494 20.484 1.28044 20.6715C1.21993 20.8488 1.18853 21.0347 1.18744 21.222C1.18744 21.4335 1.26244 21.582 1.40944 21.6675C1.55944 21.7545 1.72594 21.813 1.91344 21.843C2.14894 21.8835 2.37094 21.9135 2.58244 21.9375C2.79244 21.9615 2.99944 21.9975 3.20344 22.0425C3.40594 22.0905 3.60844 22.14 3.81244 22.1955C4.01494 22.2495 4.23094 22.3365 4.45744 22.4535C4.50244 22.476 4.57444 22.5045 4.66744 22.5345L4.98394 22.6395C5.10094 22.68 5.21044 22.7115 5.31244 22.734C5.38503 22.7535 5.45941 22.7655 5.53444 22.77ZM9.82444 21.363C10.0434 21.363 10.2774 21.3405 10.5279 21.2925C11.0379 21.1969 11.5312 21.0271 11.9919 20.7885C12.2064 20.6791 12.4103 20.5501 12.6009 20.403C12.6199 20.3817 12.636 20.358 12.6489 20.3325C12.6639 20.3024 12.6754 20.2707 12.6834 20.238V20.226C12.7299 20.055 12.7689 19.866 12.8004 19.6635C12.8329 19.4572 12.8605 19.2501 12.8829 19.0425C12.9056 18.8349 12.9331 18.6278 12.9654 18.4215C12.9954 18.219 13.0239 18.0195 13.0464 17.8245C13.0779 17.6145 13.1169 17.4105 13.1634 17.2155C13.2114 17.0205 13.2729 16.836 13.3509 16.6635C13.428 16.4936 13.5353 16.3391 13.6674 16.2075C13.8213 16.0592 13.9949 15.933 14.1834 15.8325V15.8085L14.1714 15.774C14.1741 15.6945 14.1984 15.6171 14.2419 15.5505C14.2945 15.4644 14.3531 15.3822 14.4174 15.3045C14.4799 15.2256 14.5555 15.1581 14.6409 15.105C14.719 15.0582 14.8014 15.019 14.8869 14.988C14.8396 14.7995 14.7886 14.612 14.7339 14.4255C14.6796 14.2399 14.6326 14.0523 14.5929 13.863C14.5546 13.6235 14.508 13.3853 14.4534 13.149C14.41 12.9657 14.3549 12.7853 14.2884 12.609C14.2213 12.4372 14.1304 12.2756 14.0184 12.129C13.9029 11.973 13.7574 11.784 13.5864 11.5665C13.5211 11.4935 13.4619 11.4152 13.4094 11.3325C13.3687 11.2395 13.3453 11.1399 13.3404 11.0385C13.3217 10.9359 13.2982 10.8343 13.2699 10.734C13.1646 10.3541 13.0435 9.97881 12.9069 9.609C12.8349 9.41154 12.7487 9.21954 12.6489 9.0345C12.5693 8.88633 12.4832 8.74169 12.3909 8.601C12.3129 8.484 12.2304 8.4255 12.1449 8.4255C11.9574 8.4255 11.7339 8.5005 11.4759 8.649C11.2194 8.7975 10.9449 8.961 10.6569 9.141C10.3674 9.321 10.0869 9.489 9.81244 9.645C9.53944 9.801 9.29344 9.8745 9.07444 9.867C8.84072 9.86685 8.61374 9.78872 8.42944 9.645C8.23079 9.49364 8.04967 9.32057 7.88944 9.129C7.72594 8.934 7.58944 8.766 7.47994 8.625C7.37044 8.484 7.28944 8.406 7.23394 8.391C7.17244 8.391 7.13644 8.4375 7.12894 8.5305C7.12059 8.63579 7.11659 8.74138 7.11694 8.847V9.0465C7.11694 9.0945 7.10944 9.1245 7.09294 9.141C7.00744 9.321 6.91294 9.4965 6.81244 9.6675C6.71044 9.84 6.60994 10.0155 6.50794 10.1955C6.30589 10.5414 6.193 10.9321 6.17944 11.3325C6.17944 11.4495 6.18694 11.5665 6.20344 11.6835C6.21844 11.8005 6.25744 11.9145 6.32044 12.024L6.29644 12.069C6.23622 12.1526 6.16951 12.2314 6.09694 12.3045C6.02303 12.3798 5.95671 12.4622 5.89894 12.5505C5.61202 12.9744 5.40511 13.4471 5.28844 13.9455C5.17144 14.445 5.10844 14.9535 5.10094 15.468C5.10094 15.6015 5.10994 15.735 5.12494 15.867C5.13994 16.0005 5.14894 16.1325 5.14894 16.266C5.14848 16.3093 5.14447 16.3524 5.13694 16.395C5.1294 16.4376 5.12539 16.4807 5.12494 16.524C5.29168 16.5428 5.45209 16.5987 5.59444 16.6875C5.77444 16.7895 5.96944 16.9185 6.17944 17.0745C6.38944 17.2305 6.59044 17.4105 6.77794 17.6145C6.96544 17.817 7.14394 18.015 7.31644 18.2115C7.48894 18.4065 7.61344 18.6015 7.69144 18.7965C7.76944 18.9915 7.82044 19.152 7.84294 19.2765C7.84697 19.3672 7.83242 19.4578 7.80018 19.5426C7.76793 19.6275 7.71868 19.7049 7.65544 19.77C7.52092 19.9012 7.3619 20.0047 7.18744 20.0745C7.32094 20.3085 7.48444 20.508 7.67944 20.6715C7.87444 20.8365 8.08594 20.9685 8.31244 21.0705C8.53894 21.1725 8.78494 21.246 9.05044 21.2925C9.31594 21.3405 9.57544 21.363 9.82444 21.363ZM14.5239 23.028C14.6874 23.028 14.8479 23.004 15.0039 22.9575C15.2403 22.8897 15.4653 22.7871 15.6714 22.653C15.8754 22.5195 16.0614 22.356 16.2339 22.1595C16.6414 21.6894 17.14 21.3067 17.6994 21.0345L18.0864 20.859C18.2192 20.8011 18.348 20.7345 18.4719 20.6595C18.5615 20.6028 18.6445 20.5364 18.7194 20.4615C18.7572 20.425 18.787 20.3811 18.8072 20.3326C18.8273 20.2841 18.8373 20.232 18.8364 20.1795C18.8365 20.1192 18.8243 20.0594 18.8004 20.004C18.7725 19.9416 18.7372 19.8827 18.6954 19.8285C18.5885 19.6797 18.487 19.5271 18.3909 19.371C18.3041 19.229 18.2293 19.08 18.1674 18.9255L17.9799 18.4575C17.9123 18.2857 17.8572 18.1092 17.8149 17.9295C17.7987 17.874 17.7711 17.8224 17.7339 17.778C17.6585 17.6653 17.5556 17.5737 17.4348 17.512C17.314 17.4503 17.1795 17.4205 17.0439 17.4255C16.904 17.425 16.7665 17.4612 16.6449 17.5305L16.2459 17.754C16.1071 17.831 15.9665 17.9051 15.8244 17.976C15.6863 18.0455 15.5336 18.0815 15.3789 18.081C15.2406 18.087 15.1043 18.0464 14.9919 17.9655C14.8841 17.8799 14.7961 17.7719 14.7339 17.649C14.6673 17.5239 14.6086 17.3946 14.5584 17.262L14.4174 16.875C14.3564 16.9753 14.2861 17.0697 14.2074 17.157C14.1271 17.2464 14.0636 17.3495 14.0199 17.4615C13.9179 17.6955 13.8549 17.9565 13.8324 18.246C13.7934 18.699 13.7424 19.14 13.6794 19.5705C13.6153 20.0095 13.5098 20.4414 13.3644 20.8605C13.323 20.9945 13.2914 21.1314 13.2699 21.27C13.2467 21.4136 13.2306 21.5583 13.2219 21.7035C13.2219 22.086 13.3404 22.4025 13.5744 22.653C13.8084 22.902 14.1249 23.028 14.5239 23.028Z" fill="white"/>
</svg>
