<svg width="116" height="40" viewBox="0 0 116 40" fill="none" xmlns="http://www.w3.org/2000/svg">
<path fill-rule="evenodd" clip-rule="evenodd" d="M30.0678 33.0039C30.0678 33.0039 30.3103 33.804 30.9082 33.5025C31.5062 33.2014 31.7486 32.7496 32.3466 32.7496C32.9446 32.7496 35.4373 32.3982 36.0353 32.7496C36.6333 33.1011 36.6932 32.7995 36.9922 32.7995C37.2912 32.7995 38.1695 32.9165 38.1695 32.9165C38.934 32.8567 38.7781 31.9453 38.2256 31.6786C37.4281 31.2101 36.3543 30.9091 35.557 30.4401C35.477 29.9883 35.3975 29.5365 35.3177 29.0847C35.5369 28.8507 35.7562 28.6162 35.9756 28.3818C35.9756 27.629 35.9756 26.8759 35.9756 26.1229C35.856 25.922 35.7363 25.7212 35.6167 25.5204C35.5768 24.9515 35.5369 24.3827 35.4971 23.8136C35.3975 23.7132 35.2977 23.6128 35.1981 23.5124C35.1981 23.2949 35.1981 23.0773 35.1981 22.8597C35.3975 22.6423 35.8013 22.4247 36.0008 22.2071C36.0605 21.7888 35.7932 21.4935 35.8531 21.0751C35.7134 20.5397 35.6965 19.8811 35.557 19.3456C35.557 18.693 35.557 18.0403 35.557 17.3878C36.1354 17.2584 36.2756 17.0661 36.3169 16.8716C36.37 16.6212 36.2065 16.3264 36.0353 15.731C35.9556 12.6018 35.9168 9.34942 35.8371 6.2201C36.1552 5.84612 36.5366 5.65266 36.5446 5.37559C36.5508 5.15988 36.242 4.98004 35.856 4.73676C35.856 4.51923 35.856 4.30181 35.856 4.08411C35.856 4.08411 36.5138 3.08003 37.0519 3.08003C37.5902 3.08003 37.949 2.77889 37.949 2.47769C38.4401 1.7459 37.4108 1.67442 37.4108 1.67442C36.2717 1.65669 34.9815 1.70042 33.8703 1.68285C32.89 1.6672 32.0855 1.58977 31.1317 1.57402C30.713 1.59086 30.2944 1.60745 29.8757 1.62419C28.8469 1.85852 29.0631 2.27753 29.4572 2.5116C29.9355 2.73746 30.3437 2.99616 30.8923 3.00479C31.5619 3.01524 32.0948 3.1798 32.3276 3.68246C32.3875 5.69056 32.4472 7.69872 32.507 9.70677C32.527 11.1878 32.5879 12.6689 32.6076 14.1496C32.6276 15.6305 32.6069 17.1116 32.6266 18.5925C32.6665 20.333 32.7063 22.0733 32.7463 23.8136C32.7463 23.8136 32.6266 24.4663 32.4472 24.6169C32.2679 24.7674 32.3276 26.0727 32.3276 26.0727C32.9899 26.5054 32.8491 26.4448 32.3875 27.0266C32.3474 28.3152 32.3076 29.6036 32.2679 30.8919C32.1084 31.1264 31.9488 31.3609 31.7893 31.5949C31.7893 31.5949 30.0678 32.3514 30.0678 33.0039ZM1.10671 39.2445C0.219942 39.1078 0.0536728 38.7859 0.368649 38.5962C0.557666 38.4823 1.06295 38.4865 1.29011 38.4069C1.62253 38.2894 1.96208 38.1355 2.16221 37.9499C2.50425 37.6322 2.29677 36.8971 2.70494 36.2981C3.09717 33.7713 3.21467 30.4235 2.82265 29.2973C2.5873 27.5617 2.82889 21.7966 2.82889 21.0659C3.08934 20.7149 3.18708 20.6861 3.18909 20.071C3.18978 19.8306 3.40546 19.4565 3.17572 19.1591C2.84248 18.8738 2.9432 17.7582 2.91713 17.1294C2.87859 16.1933 2.97018 16.201 3.31749 15.3529C3.44823 15.0339 3.49253 14.6543 3.31749 14.3483C3.03451 13.8539 2.62536 14.4251 2.6526 13.4322C2.71936 11.0226 2.83916 8.5984 2.75466 6.1898C2.77296 5.97517 3.24954 5.93598 3.34285 5.7331C3.46146 5.47517 3.50077 5.15614 3.34285 4.91116C3.25342 4.77228 2.75291 4.9529 2.60608 4.84767C1.70876 4.20463 0.5812 3.8007 0.0612353 2.94272C-0.140308 2.60997 0.184745 1.8736 0.612004 1.71445C1.31983 1.4507 2.63645 1.72335 3.41093 1.62316C3.82742 1.56934 4.09099 1.38347 4.51289 1.36954C7.80359 1.26082 11.1898 1.01411 14.4687 1.25774C14.9936 1.29674 15.1666 1.9912 15.645 2.16361C16.3008 2.39997 17.2598 2.34933 17.7624 2.75268C18.5682 3.39895 19.1462 3.93136 19.2485 4.82724C19.374 5.92667 19.6259 7.17194 19.6135 8.01645C19.6031 8.72365 19.3198 9.36195 18.8994 9.97021C18.3236 10.8039 17.6382 11.5818 16.8959 12.4053C16.4681 12.8799 15.7066 13.3206 15.5274 13.8618C15.3422 14.4213 17.2695 14.0105 17.6638 14.5004C18.0428 14.9714 17.3405 15.5232 17.5524 16.0538C17.7415 16.5271 18.8343 16.5732 18.964 17.0584C19.2987 18.3107 18.5602 19.635 18.8464 20.8944C18.9379 21.2976 19.791 21.312 19.8739 21.7164C19.9746 22.5903 19.9386 23.5154 19.9477 24.4438C19.9572 25.432 20.0083 26.4247 19.9914 27.3641C19.9591 27.7182 19.3409 27.9253 19.2857 28.2773C19.1385 29.2147 19.5679 30.2732 19.292 31.1925C19.0011 32.1606 17.9634 32.8442 17.5585 33.7874C17.2079 34.6042 17.3074 35.7969 16.7415 36.309C15.8056 36.5295 14.6407 37.0234 13.9035 37.4352C12.8263 38.0362 12.1377 38.7251 11.8065 38.7469C11.3857 39.0277 10.4955 38.84 9.97382 38.9861C9.49272 39.1203 9.44738 39.4228 8.94007 39.3735C8.53945 39.335 8.66431 39.0854 8.35188 38.8873C8.16997 38.7714 7.82017 38.7641 7.6461 38.8873C6.59017 39.5248 7.37775 39.3579 6.17874 39.2747C4.96073 39.1904 2.58993 39.4722 1.1072 39.2445H1.10671ZM7.93018 35.5785C8.2047 35.1829 8.47922 34.7872 8.75381 34.391C8.6752 33.0824 8.59687 31.7732 8.51839 30.4641C8.75381 30.2202 8.98902 29.9769 9.22423 29.733C9.22423 28.4145 9.22423 27.096 9.22423 25.7773C9.22423 25.1778 9.11283 24.5784 9.11283 23.9792C8.28705 23.4669 8.68191 23.4744 9.34804 22.8833C9.34804 22.3049 9.53404 21.8382 9.53404 21.2597C9.45542 20.7727 9.37709 20.2855 9.29862 19.7984C9.4164 19.5549 9.53403 19.3114 9.6516 19.0678C9.6516 18.3353 9.76301 17.7425 9.76301 17.0099C9.76301 16.322 9.78957 16.0916 9.95726 16.1347C10.125 16.1777 10.434 16.4946 10.9982 16.9015C11.4269 17.2107 11.8559 17.52 12.2847 17.8291C13.0769 18.4 13.8482 18.452 13.5272 19.3875C13.2272 20.2627 14.0895 20.5055 13.8215 21.374C13.6167 22.0373 13.3476 22.4429 13.4073 22.8542C13.4428 23.1009 13.597 23.3497 13.9537 23.6574C14.2835 23.9417 14.3934 23.9239 14.1963 24.2738C13.8907 24.8161 13.6301 25.1323 13.5996 25.4578C13.5602 25.8761 13.864 26.0683 14.1305 26.8073C14.3486 27.4117 14.3282 27.8124 14.1264 28.4187C13.8874 29.1377 13.6484 29.8568 13.4094 30.5758C13.3825 31.1197 13.3164 31.664 13.2649 32.2084C13.187 33.0377 13.0396 33.059 12.2708 33.6517C11.5723 34.1903 10.6733 34.651 9.9994 35.1324C9.25445 35.3456 8.67492 35.3654 7.9299 35.5785H7.93018ZM9.72994 12.5018C10.3267 12.515 10.5936 12.5593 10.7787 12.5021C10.9638 12.4448 11.0671 12.286 11.3371 11.8933C11.6857 11.3856 12.2021 10.751 12.6303 10.7033C13.3519 10.623 13.7283 10.5424 13.7283 10.5424C13.7283 10.5424 14.1059 10.4888 13.9767 9.7909C13.8475 9.093 13.5812 8.42188 13.8159 8.23403C14.0503 8.04618 14.0999 7.50937 13.8502 7.29459C13.6009 7.07996 13.3637 6.86513 13.7667 6.56992C14.1697 6.27465 14.4475 5.78035 13.4846 5.86094C12.5217 5.94148 12.5336 5.6289 12.4223 5.41407C12.3109 5.19939 11.2606 5.24842 10.7114 5.22476C10.1628 5.3053 9.70146 5.27842 9.71727 5.70783C9.73328 6.13723 9.64101 8.20726 9.64891 8.42199C9.65682 8.63672 9.72994 12.5018 9.72994 12.5018ZM40.189 31.3443C40.1461 31.5268 39.5876 31.5278 39.6305 31.7108C39.6905 31.9661 39.7128 32.3649 40.0558 32.3982C41.0505 32.4949 42.4143 32.198 43.4007 32.3347C43.7902 32.3888 43.8115 32.8869 44.1686 33.0153C44.462 33.0117 44.9137 33.0195 45.2858 33.0153C45.5722 32.9035 45.4952 32.5094 45.7745 32.3872C46.1184 32.2365 46.5875 32.1793 46.9614 32.2822C47.1626 32.3379 46.888 32.7346 47.101 32.7538C48.8412 32.7044 50.3957 32.8474 52.0421 32.7538C52.3709 32.7132 52.0359 32.3602 52.3053 32.2136C52.6115 32.0467 53.3707 32.3378 53.4224 32.0566C53.6897 30.6023 53.2724 28.9786 53.4545 27.5174C53.5128 27.0495 54.1113 26.7722 54.2451 26.313C54.2896 26.1601 54.534 26.1574 54.5535 26.0068C54.6213 25.4824 54.6089 24.8464 54.4319 24.33C54.1973 24.1496 53.4803 24.084 53.245 24.1661C52.98 24.3125 53.221 24.8321 53.043 25.0396C52.955 25.1424 52.6416 24.9366 52.5543 25.0396C52.4686 25.1409 52.5794 25.3071 52.6187 25.4385C52.6423 25.5172 52.6401 25.5836 52.5543 25.6157C52.0964 25.7873 51.4223 25.38 51.0183 25.6157C50.6219 25.8469 51.067 26.2944 50.7316 26.5748C50.1879 27.0293 49.0228 27.2955 48.4813 27.7515C47.8374 28.2934 47.8948 28.8466 47.1549 29.3145C46.5756 29.6805 45.5914 29.719 44.8895 29.9327C44.0758 30.1807 43.6873 30.6377 42.8421 30.816C42.5868 30.8701 42.2752 30.5353 42.3534 30.345C42.9866 28.8055 43.8095 27.2577 44.4931 25.7303C44.9316 24.7504 45.1375 24.1322 45.6112 23.1614C46.1016 22.1567 46.742 20.9149 47.5425 20.0294C47.7002 19.8549 48.2262 19.9688 48.3106 19.7676C48.5199 19.2681 48.1282 18.702 48.3106 18.1967C48.4454 17.8226 48.9705 17.4637 49.405 17.2541C49.6986 17.1126 50.1671 17.3098 50.2967 17.0668C50.5993 16.4994 50.3166 15.8984 50.5071 15.3043C50.6356 14.9041 51.0021 14.6588 51.2354 14.286C51.5449 13.7912 51.5223 13.3617 51.8638 12.8788C52.1418 12.486 52.7266 11.9361 52.8951 11.5095C53.1264 10.9237 52.9368 10.6362 53.0121 10.0278C53.0323 9.864 53.3523 9.77333 53.3612 9.60887C53.4696 7.63836 53.6087 5.66087 53.4545 3.69187C53.442 3.53142 52.9614 3.53835 52.9657 3.37769C52.9824 2.77598 53.0798 2.24436 53.0356 1.70208C53.0271 1.59612 53.0759 1.50934 52.9347 1.50492C50.7484 1.43613 48.5905 1.47347 46.4028 1.4926C44.6109 1.50815 42.8145 1.40042 41.0268 1.4926C40.7563 1.50654 40.5139 1.54141 40.3286 1.68975C40.1509 1.83205 40.0626 2.13574 40.073 2.3304C40.12 3.20549 40.0495 4.1582 40.073 5.21042C40.0771 5.40539 40.5893 5.28872 40.6777 5.47225C40.9239 5.98344 40.9428 6.55375 40.8872 7.09551C40.8695 7.26958 40.5873 7.50395 40.5928 7.67823C40.705 8.28399 40.8096 8.7121 40.957 9.29477C41.0418 9.52011 41.3003 9.69611 41.3759 9.92316C41.4662 10.1946 41.1362 10.7428 41.5081 10.761C41.6316 10.7669 42.0626 10.8209 42.2835 10.761C42.5676 10.6838 42.1791 10.2931 42.2835 10.0802C42.3576 9.9293 42.7383 9.92478 42.7723 9.7661C42.9569 8.90386 42.6361 7.89348 42.8185 7.03082C42.8741 6.76795 43.075 6.49027 43.377 6.35015C43.634 6.23083 44.099 6.52916 44.2847 6.35015C44.5421 6.10178 44.2888 5.81567 44.4479 5.52461C44.6758 5.1081 45.0465 4.72402 45.4952 4.42496C45.9073 4.15019 46.3197 3.82134 46.8679 3.77855C48.0938 3.68304 49.5602 3.76877 51.2203 3.71516C51.376 3.70996 51.4178 3.88945 51.4297 4.00607C51.4885 4.58032 51.6279 5.36052 51.4297 5.73409C51.1423 6.27626 50.4919 6.8814 49.8316 7.44448C49.3799 7.82949 48.9232 8.17023 48.5747 8.55617C48.1569 9.01885 48.7811 9.64979 48.5672 10.185C48.3483 10.7325 47.7503 11.3144 47.2869 11.7682C46.9067 12.1405 46.3479 12.331 45.9916 12.7162C45.5466 13.1972 45.2875 13.6709 45.0065 14.217C44.7729 14.6711 44.6223 15.1504 44.5177 15.6308C44.4352 16.0102 44.677 16.4392 44.4479 16.7828C44.2801 17.0346 43.9015 16.9881 43.6573 17.2017C43.3187 17.4981 43.1204 17.878 42.9592 18.249C42.7681 18.6884 42.7524 18.9487 42.4543 19.3531C42.1197 19.8066 41.4482 20.2447 41.1439 20.7101C40.8119 21.2176 40.7739 21.8344 40.6079 22.3857C40.4474 22.919 40.3132 23.4212 40.1664 23.9566C39.9866 24.6119 39.7989 25.2777 39.8173 25.9465C39.8228 26.15 40.1098 26.2901 40.2362 26.4701C40.3429 26.6221 40.5879 26.7784 40.5155 26.9414C40.4166 27.1641 39.8615 27.1802 39.8173 27.4127C39.7717 27.6527 39.8531 27.8743 40.0881 28.0412C40.2924 28.1857 40.7094 28.1228 40.8561 28.3027C41.0139 28.4967 40.9855 28.7784 40.8561 28.9833C40.7485 29.1544 40.3704 29.1127 40.3211 29.2978C40.1204 30.0512 40.3668 30.5878 40.189 31.3443ZM100.724 38.7652C100.593 38.4532 100.92 38.3923 101.137 38.2296C101.456 37.9915 101.763 37.7591 101.89 37.2901C101.937 37.1123 102.18 36.8248 102.236 36.5399C102.319 36.1239 102.193 35.6903 102.041 35.4215C101.843 35.0695 101.518 34.886 101.636 34.5501C101.678 34.3354 102.325 34.3089 102.835 34.1389C103.103 34.05 103.332 33.8758 103.418 33.712C103.529 33.4963 103.158 33.5331 102.968 33.2591C102.767 32.9675 102.737 32.5308 102.582 32.3134C102.31 31.9349 101.815 31.4269 101.797 30.997C101.748 29.85 102.191 28.6921 102.248 27.5886C102.296 26.6632 102.588 26.4427 102.493 25.4945C102.447 25.0224 102.109 24.6788 101.759 24.1968C101.47 23.7973 101.09 23.4019 100.945 23.0251C100.686 22.3545 100.946 21.5597 100.789 20.8716C100.759 20.7367 100.308 20.5718 100.292 20.4354C100.175 19.4908 100.317 18.5235 100.236 17.5892C100.195 17.4134 100.005 17.38 99.9826 17.2023C99.9167 16.6785 99.9819 16.1685 99.9798 15.7158C99.9777 15.3163 99.9042 14.9749 99.9042 14.5107C99.9042 14.3376 99.7129 14.219 99.7053 14.0459C99.6588 13.0244 99.7157 11.8964 99.6977 10.8732C99.6782 9.78388 99.5895 8.79925 99.7053 7.71458C99.7254 7.53173 100.218 7.53614 100.209 7.35291C100.163 6.52176 100.067 6.19121 100.093 5.35522C100.096 5.25877 100.359 5.03463 100.369 4.93845C100.446 4.24294 100.561 3.54677 100.325 2.95156C100.154 2.52044 99.7233 2.38614 99.2283 2.10803C98.7916 1.86237 98.3043 1.46302 97.9001 1.23919C97.3829 0.952561 97.0384 0.722021 96.6467 0.292772C96.411 0.0344215 96.7999 0.0118601 97.2339 0.0023455C97.7913 -0.00987271 98.3999 0.026628 98.9303 0.0889148C99.1098 0.109972 99.4474 0.342011 99.6172 0.391352C100.026 0.510311 100.294 0.355846 100.713 0.453851C101.032 0.528772 102.367 1.05057 102.726 1.20576C103.216 1.41779 103.375 1.7259 103.888 1.906C103.98 1.93839 105.562 2.27815 105.746 2.31262C106.175 2.39284 106.441 2.1579 106.869 2.23812C107.367 2.33119 108.252 2.51924 108.811 2.64469C109.126 2.7153 109.325 2.9943 109.647 3.04244C111.21 3.27641 110.931 2.88559 112.169 3.81401C112.534 4.0876 113.136 4.30731 113.408 4.63606C113.792 5.09998 113.832 5.66862 114.076 6.17425C114.266 6.56736 114.69 6.89029 114.791 7.308C115.062 8.43212 114.779 9.60106 114.963 10.7351C115.019 11.0814 115.494 11.4468 115.544 11.7938C115.733 13.1222 115.765 14.4339 115.549 15.76C115.476 16.207 114.974 16.3888 114.885 16.8341C114.736 17.581 115.033 18.3459 114.963 19.0994C114.929 19.4603 114.662 19.837 114.409 20.145C114.225 20.3693 113.804 20.4501 113.668 20.6929C113.313 21.3303 113.402 22.2018 113.237 22.8925C113.186 24.2108 113.222 25.2335 113.297 26.5509C113.351 27.4796 113.478 28.3131 113.32 29.2349C113.264 29.5542 112.908 29.7294 112.844 30.0481C112.668 30.9289 112.819 31.8335 112.705 32.72C112.686 32.8708 112.388 33.0455 112.346 33.1936C112.267 34.0037 112.191 35.186 111.72 36.0979C111.41 36.6995 110.657 37.3057 109.933 37.6541C109.232 37.9915 108.479 38.0643 107.671 38.2187C107.161 38.3159 106.59 38.2691 106.123 38.4506C105.842 38.5598 106.03 38.5613 105.775 38.6986C105.627 38.7771 105.372 38.7839 105.232 38.6986C105.036 38.5775 105.097 38.528 104.867 38.4464C104.517 38.3222 104.061 38.332 103.705 38.4464C103.449 38.5291 103.542 38.6794 103.268 38.7194C102.714 38.8005 102.065 38.9055 101.466 38.8936C101.108 38.8868 100.825 39.008 100.724 38.7652ZM105.922 8.93604C106.7 8.90516 106.853 8.87349 107.545 9.15248C108.261 9.44047 108.411 9.63044 108.848 10.1508C109.074 10.3141 109.3 10.4774 109.525 10.6406C110.445 11.3065 110.879 12.2464 111.255 13.1271C111.316 14.0832 111.59 15.7583 110.954 16.6259C110.636 17.059 110.511 17.3933 110.457 17.7607C110.306 18.7889 109.917 18.6284 109.521 19.407C109.414 19.6182 109.438 19.881 109.428 20.3823C109.393 22.1723 109.358 23.9625 109.323 25.7523C109.301 26.896 109.014 27.4417 108.398 28.4977C108.036 29.0026 107.846 29.328 107.846 29.901C107.846 30.58 107.661 30.893 107.301 31.5117C107.082 31.8881 106.862 32.265 106.643 32.642C106.383 33.0886 106.145 33.2487 105.972 33.189C105.799 33.1297 105.693 32.8494 105.696 32.4158C105.711 30.2306 105.726 28.0459 105.741 25.8606C105.775 23.5374 105.808 21.2142 105.841 18.8911C105.802 18.3922 105.827 18.2816 105.39 17.9116C105.35 17.1595 105.156 16.8193 104.839 16.1033C104.438 15.5387 104.484 15.1268 104.474 14.4814C104.449 12.8668 104.423 11.2519 104.398 9.63726C104.383 8.64644 104.682 8.98517 105.922 8.93604ZM55.1526 36.7151C54.913 35.8364 55.0806 35.1382 55.1434 34.4773C55.1733 34.3198 55.5971 34.4669 55.7123 34.3338C55.884 34.1347 56.0392 33.8618 55.9256 33.6403C55.8576 33.5077 55.7371 33.6907 55.6353 33.5706C55.4948 33.4052 55.5441 33.138 55.7064 32.9841C55.943 32.759 56.4165 32.8172 56.5782 32.5573C56.7987 32.2027 56.4202 31.7566 56.5782 31.3838C56.6284 31.2652 57.037 31.5049 57.076 31.3838C57.2602 30.8134 57.0311 30.2041 57.1471 29.6238C57.1773 29.4725 57.3554 29.4024 57.3788 29.2506C57.4775 28.6147 57.5289 27.9606 57.3788 27.3304C57.2858 26.9391 56.8642 26.6574 56.7915 26.2637C56.5276 24.8356 56.4478 23.2807 56.6928 21.8506C56.8831 20.7404 57.8268 19.0236 58.3811 17.9843C58.7277 17.3341 58.8977 17.5369 59.2094 16.8766C59.3046 16.6748 59.3706 16.4397 59.2805 16.2366C59.1682 15.9837 58.7702 15.7903 58.8262 15.527C58.8949 15.2043 59.4239 15.2125 59.565 14.9032C59.7567 14.4828 59.3708 13.9897 59.565 13.5698C59.7934 13.0759 60.5807 12.7922 60.7739 12.2898C60.9583 11.8104 60.7606 11.0446 60.9412 10.5643C61.298 9.61537 61.7267 9.00242 62.3384 8.12963C62.6996 7.61428 63.3273 7.17886 63.6093 6.63621C63.8812 6.11338 63.8534 5.42119 63.974 4.98284C63.5296 4.56617 62.5097 5.14771 61.8406 4.96651C61.5012 4.87464 61.5023 4.45835 61.1663 4.3591C60.4467 4.32239 59.7586 4.30996 59.2463 4.59815C58.559 4.98466 58.5535 5.43778 58.2849 6.04952C57.8835 6.9636 58.1894 7.99055 57.6884 8.87629C57.4903 9.22656 56.682 9.32504 56.2938 9.56967C56.0883 9.69902 55.9929 9.8339 55.7248 9.8339C55.4566 9.8339 55.2228 9.76443 55.1559 9.56967C55.0197 9.17385 55.1824 8.75141 55.1559 8.34296C55.135 8.02144 54.9054 7.69441 55.0137 7.38292C55.0701 7.22065 55.5653 7.2835 55.5826 7.11625C55.7952 5.28372 55.503 3.463 55.5403 1.7119C55.5534 1.09709 55.7709 1.18824 56.5779 1.18211C57.9371 1.1716 60.0914 1.1795 61.6537 1.17357C64.3948 1.16328 67.1428 1.08654 69.8762 1.14269C70.2831 1.16479 70.8128 1.27808 70.8412 1.58317C70.8987 2.20011 70.3476 2.795 69.9663 3.34326C69.7646 3.63301 69.314 3.82243 69.1657 4.12945C68.9133 4.64984 69.1872 5.26646 68.921 5.78285C68.758 6.09974 67.9296 6.15834 67.7709 6.47623C67.5456 6.92591 67.9345 7.46938 67.6995 7.91625C67.583 8.13815 66.9522 8.0114 66.8461 8.23627C66.4884 8.99733 66.6985 9.85697 66.4198 10.6364C66.2652 11.0666 65.8305 11.3683 65.7522 11.8098C65.5387 13.0081 65.8908 14.2322 65.7522 15.4366C65.7217 15.6981 65.3536 15.8785 65.2538 16.13C65.0194 16.7214 64.8718 17.3605 64.6014 17.9433C64.485 18.1951 64.0524 18.3257 63.9616 18.5834C63.828 18.9615 64.1626 19.396 63.9616 19.7567C63.7084 20.2103 62.8175 20.3958 62.6815 20.8768C62.2975 22.2343 62.9054 23.6656 62.6229 25.0369C62.4965 25.6507 61.7753 26.1328 61.6273 26.7437C61.4366 27.5307 61.7651 28.4613 61.5034 29.2365C61.2511 29.9852 60.5276 30.6341 60.1648 31.3562C60.0799 32.0649 58.9477 32.7153 59.565 33.2508C60.3096 33.3247 61.5454 33.4385 62.4095 33.1437C62.8073 33.0086 62.3466 32.3826 62.694 32.1839C63.7558 31.5756 64.9744 31.3562 66.1661 30.9039C66.8475 30.645 67.7043 30.398 68.3123 30.0507C68.6208 29.8739 68.6561 29.4543 69.0229 29.3571C69.244 29.2984 69.2897 29.7008 69.5206 29.7304C70.315 29.8318 71.0041 29.5771 71.784 29.7304C72.0959 29.7918 72.0862 30.1063 72.1674 30.3403C72.2401 30.5498 72.3663 30.7755 72.211 30.9569C72.1174 31.0661 71.7784 30.9445 71.7126 31.064C71.5774 31.3105 71.6301 31.6048 71.7126 31.8637C71.7777 32.0654 72.0239 32.1907 72.0467 32.3971C72.1687 33.4781 72.209 34.573 72.0467 35.6508C72.0128 35.877 71.8415 36.1141 71.54 36.1374C69.4887 36.0667 67.5927 36.1796 65.5387 36.1843C65.3272 36.1702 65.4486 35.8895 65.2538 35.8271C64.7241 35.6565 63.7691 35.6331 63.2069 35.7298C62.5531 35.8421 62.4984 36.2456 61.8406 36.3438C60.6553 36.5217 59.2852 36.3475 58.09 36.4832C57.6675 36.531 57.3449 36.7998 56.9305 36.8773C56.3555 36.9849 55.4488 37.0998 55.1526 36.7151ZM23.476 39.2201C22.5892 39.4535 21.5546 39.2206 20.6147 39.2357C20.325 39.2403 19.8535 39.4109 19.5752 39.3495C19.2714 39.283 18.7928 38.8312 18.9826 38.6409C19.7245 37.899 21.1869 37.8064 21.8642 37.0312C22.2625 36.5752 21.8894 35.9612 22.0606 35.4314C22.1131 35.2687 22.4933 35.2837 22.6057 35.1392C22.6971 35.0217 22.7239 34.834 22.6057 34.7305C22.3357 34.494 22.1646 34.99 22.0581 34.2819C21.9627 33.6486 21.9427 33.0054 22.021 32.3727C22.0702 31.9697 22.4608 32.055 22.5346 31.8424C22.6721 31.4467 22.3861 31.1535 22.5277 30.7583C22.5912 30.581 23.0294 30.6257 23.1508 30.4661C23.2665 30.3143 23.2802 30.0866 23.1508 29.9405C22.8855 29.642 22.1644 29.6467 22.084 29.2932C21.9362 28.6428 22.0154 27.9445 22.0306 27.2992C22.0469 26.6119 21.984 25.9226 22.0605 25.2223C22.0745 25.0924 22.4667 25.098 22.5277 24.9758C22.646 24.739 22.5711 24.4675 22.5277 24.2165C22.4929 24.0152 22.5754 23.6033 22.5548 23.4008C22.5232 23.0898 22.345 22.9742 22.5378 22.6978C22.6722 22.5053 23.1104 22.6212 23.1508 22.4058C23.3638 21.2683 22.909 20.1019 23.0728 18.9596C23.1006 18.7661 23.5069 18.7969 23.5752 18.6092C23.6851 18.3063 23.7191 17.9582 23.5402 17.6746C23.4558 17.5407 23.0577 17.5402 23.0423 17.3925C22.8674 15.7233 23.1718 14.1453 22.995 12.4761C22.9784 12.3198 22.4665 12.5391 22.457 11.8607C22.4465 11.1498 22.3592 10.4871 22.372 9.9645C22.3819 9.56353 23.5354 9.55272 23.5232 9.15175C23.5046 8.54074 23.633 7.85116 23.4452 7.22424C23.3849 7.02266 23.0343 7.056 22.9171 6.86877C22.8068 6.69293 22.9109 6.51756 23.0118 6.33814C23.133 6.12221 23.4623 5.98593 23.5402 5.75898C23.6827 5.3444 23.6684 4.89139 23.5402 4.47399C23.4981 4.33741 23.1838 4.20395 23.0965 4.08C22.9347 3.85061 23.0078 3.64815 22.7917 3.44538C22.6424 3.30547 22.2015 3.39142 22.0198 3.27511C21.5522 2.97564 21.2826 2.64266 20.8905 2.36991C20.5218 2.11375 20.0249 1.9207 19.7409 1.54355C19.5584 1.30127 19.771 0.882155 20.066 0.712972C20.2925 0.583095 20.6474 0.612471 20.899 0.712972C21.1036 0.794808 21.0996 1.12075 21.329 1.14461C22.3328 1.24948 23.3291 0.918089 24.3189 1.08124C24.7504 1.15242 24.7734 1.56118 25.1756 1.69808C25.4447 1.78974 25.9297 1.61255 26.1745 1.7366C26.5339 1.91873 26.8388 2.30622 27.1221 2.52261C27.4862 2.80082 27.8002 2.92467 27.9862 3.31862C28.2208 3.81603 28.1181 4.32639 28.1077 4.84377C28.0986 5.30026 28.1977 5.76257 28.1418 6.22629C28.1231 6.38227 27.7237 6.30886 27.6678 6.4599C27.5698 6.72506 27.6399 7.02189 27.8236 7.25986C27.9571 7.43315 28.319 7.34492 28.406 7.53407C28.609 7.97611 28.6349 8.51797 28.4839 8.97155C28.4277 9.14042 27.9931 9.0316 27.9793 9.20521C27.8044 11.4015 27.7608 13.6168 28.0572 15.8055C28.1074 16.1775 28.8917 16.31 28.9444 16.6816C29.2383 18.7533 28.9707 20.8501 28.8564 22.9315C28.8403 23.2275 28.6447 23.5996 28.4839 23.8205C28.3039 24.0674 28.4158 24.3141 28.4225 24.5866C28.4313 24.937 28.3754 25.3191 28.4466 25.6767C28.4872 25.881 29.0413 26.0755 29.0222 26.2816C28.9697 26.8494 29.0774 27.1178 29.1237 27.6776C29.146 27.9471 28.4916 28.1155 28.2841 28.336C28.1348 28.4946 28.0439 28.8019 28.1656 28.9734C28.2803 29.1351 28.4864 29.053 28.5517 29.2297C28.6439 29.4798 28.6517 29.6909 28.4839 29.9181C28.3756 30.0642 27.9766 30.045 27.9387 30.2098C27.8326 30.672 28.1826 31.1478 28.0945 31.612C28.0681 31.7509 27.6548 31.7067 27.6272 31.8455C27.4887 32.5385 27.7838 33.2571 27.6272 33.9481C27.568 34.2091 27.029 34.3266 27.0042 34.5907C26.9902 34.7383 27.4563 34.6354 27.5493 34.7659C27.6963 34.9728 27.3273 35.4012 27.6272 35.4668C28.6236 35.6856 29.8567 35.629 30.8609 35.4314C31.4296 35.3191 31.6703 34.7212 32.2559 34.6796C32.9614 34.6297 33.482 34.9791 34.1793 35.0727C35.0987 35.1969 36.1046 35.2192 37.0066 35.0373C37.5389 34.9297 37.8482 34.5059 38.3949 34.4513C40.7617 34.2127 42.9581 34.3593 45.3462 34.35C47.6043 34.3406 50.4931 34.2553 52.1694 34.3926C53.1255 34.4165 52.0888 36.9532 52.4335 38.293C52.5086 38.5847 52.8408 38.748 53.0405 39.0178C53.359 39.4483 53.4824 39.6672 52.6555 39.6646C51.1001 39.6589 49.5263 39.7488 47.8387 39.6953C47.5071 39.6849 47.5231 39.2055 47.2156 39.1109C46.8786 39.0074 46.4792 39.2336 46.1253 39.1696C45.595 39.0734 44.9973 38.6923 44.456 38.644C43.0127 38.514 41.5582 38.7854 40.1185 38.6362C39.7917 38.6024 39.7467 38.1282 39.4176 38.11C36.052 37.9255 32.8272 38.1906 29.4583 38.0529C28.7366 38.0232 28.6708 37.8345 28.2128 37.7347C27.5647 37.5943 26.4057 37.5381 25.7952 37.7528C24.6575 38.1521 24.6611 38.9076 23.4758 39.2201H23.476ZM63.99 29.3509C63.2869 29.3353 63.2401 28.4883 63.296 27.9689C63.3531 27.4376 64.2784 27.4654 64.6084 26.9935C64.8489 26.6499 64.4884 26.0458 64.7629 25.7166C65.0583 25.3621 65.859 25.3753 66.1543 25.0208C66.3234 24.8183 66.0711 24.4298 66.0787 24.1909C66.0974 23.6254 66.2666 23.2088 66.2319 22.6438C66.2139 22.3499 66.051 21.819 66.1251 21.5301C66.2271 21.1355 66.5404 21.2312 66.6957 20.8464C66.8891 20.3652 66.5674 19.8175 66.7726 19.339C66.8544 19.1498 67.5158 19.2448 67.4686 19.0491C67.4111 18.811 66.8322 18.9392 66.7747 18.7012C66.5993 17.9767 66.5896 17.1241 66.8503 16.4142C67.0132 15.9701 67.6849 15.6304 67.8555 15.1876C68.0336 14.7237 67.6565 14.1976 67.8555 13.7381C67.9899 13.4262 68.6769 13.3604 68.783 13.0424C69.0326 12.2923 68.81 11.3723 69.07 10.6243C69.2066 10.2317 69.4797 9.78679 69.8145 9.54076C70.0156 9.39305 70.1965 9.28573 70.2908 9.05296C70.4197 8.73415 70.1029 8.46602 70.1757 8.13727C70.2402 7.84643 70.5362 7.65973 70.724 7.40107C70.9618 7.07445 71.061 6.66065 71.289 6.3306C71.6218 5.84806 72.0696 5.44438 72.3081 4.93101C72.4862 4.54824 72.1036 3.92391 72.3316 3.55607C72.6547 3.03521 73.4893 3.04805 73.8075 2.52542C74.0647 2.10324 73.6148 1.55145 73.8852 1.13395C74.0814 0.829795 74.5243 0.69551 74.9743 0.682096C75.3042 0.672269 75.7049 0.84352 75.8172 1.07593C76.0384 1.53133 75.8387 2.07855 76.089 2.52542C76.5278 3.31129 77.2889 3.77449 77.7111 4.56566C77.9309 4.97816 77.6931 5.57134 77.8276 6.00408C78.0106 6.59237 78.1388 7.18566 78.3981 7.75857C78.7198 8.472 79.1808 9.16402 79.4511 9.88859C79.6903 10.5303 79.7478 11.2265 79.9323 11.8796C80.0674 12.3562 80.3142 12.7938 80.5333 13.2514C80.6268 13.4478 80.9437 13.398 81.0192 13.5992C81.1516 13.9546 80.7537 14.3412 80.8646 14.7008C80.9964 15.1305 81.6133 15.566 81.7145 16.0003C81.8795 16.7045 81.7076 17.3781 81.7305 18.093C81.7513 18.7463 81.8435 19.353 81.9579 19.9793C82.0286 20.3647 82.3128 20.9142 82.326 21.1943C82.3738 22.2378 82.4355 23.2651 82.4508 24.3098C82.4743 25.8366 82.4743 27.4688 82.3724 28.9927C82.3606 29.1705 82.0778 29.2615 81.9946 29.4284C81.6792 30.0601 81.4151 30.4094 81.2126 31.0671C81.1059 31.4139 81.1024 31.7873 80.9035 32.1106C80.7815 32.3093 80.2373 32.472 80.1451 32.6794C79.9406 33.1411 80.1915 33.6054 80.1465 34.1815C80.1083 34.6775 79.8345 34.9624 79.5593 35.4236C79.3707 35.7387 79.0643 36.23 78.9479 36.5586C78.821 36.9153 79.0491 37.3062 78.9097 37.6603C78.8362 37.8454 78.4993 37.9348 78.446 38.1241C78.3122 38.5967 78.5617 39.1124 78.3683 39.5731C78.2595 39.8341 78.1839 39.7961 77.8519 39.9085C77.6162 39.9875 76.9978 40.0774 76.9624 39.8851C76.8127 39.0781 77.1156 38.5177 76.9451 37.7123C76.7455 36.7702 76.22 36.1972 75.9032 35.2728C75.7493 34.8241 76.0245 34.013 75.7403 33.6018C75.2287 32.8609 73.5906 32.5614 73.662 31.729C73.7306 30.9237 74.3725 30.3996 75.0262 29.7445C75.4727 29.2958 75.7632 28.5632 76.0411 28.0521C76.2456 27.6752 76.3649 27.2337 76.3739 26.862C76.3877 26.3071 76.1874 26.0656 75.6273 25.7206C74.4571 24.9994 72.566 24.3399 71.1095 23.8088C70.896 23.731 70.6457 24.0365 70.6457 24.2147C70.6457 24.3928 70.9237 24.5314 70.9514 24.708C71.0325 25.2275 70.6131 25.7666 70.9133 26.2384C71.2301 26.737 72.48 26.8821 72.2949 27.4164C72.1701 27.7742 72.053 27.9003 71.6481 28.075C71.4027 28.181 71.1303 28.1738 70.8433 28.1837C69.9823 28.2133 69.097 27.9845 68.2652 28.1166C67.3619 28.2601 66.5536 28.5731 65.7189 28.885C65.1664 29.092 64.6014 29.3649 63.99 29.3509ZM71.6045 21.2452C71.5968 20.7337 71.5802 20.2304 71.5816 19.7274C71.583 19.2832 71.5975 18.8391 71.644 18.3896C71.6745 18.0976 72.0308 17.8748 72.0766 17.584C72.1535 17.1033 71.7597 16.5263 71.9393 16.064C72.0114 15.8763 72.6457 16.0645 72.7892 15.9068C72.8363 15.8551 72.9327 15.5541 73.0928 15.2975C73.1892 15.1436 73.3895 15.0054 73.3895 14.9464C73.3895 14.8605 73.3819 14.2501 73.4679 13.7213C73.5178 13.4143 73.5808 13.1551 73.6432 13.1531C73.7049 13.151 73.7673 13.4055 73.9843 13.6172C74.2339 13.8608 74.3184 14.1024 74.5368 14.36C74.6658 14.5121 74.8044 14.6911 75.0172 14.753C75.2883 14.8321 75.6127 14.7209 75.8824 14.8025C76.0841 14.8635 76.1333 15.1009 76.315 15.1955C76.4377 15.2595 76.7191 15.1376 76.7475 15.2545C76.8758 15.7809 76.7649 16.4854 76.8765 17.0142C76.9035 17.1409 77.2772 17.082 77.2855 17.2107C77.3423 18.1316 77.3707 19.054 77.3666 19.9765C77.3631 20.7904 77.3347 21.6046 77.2786 22.4179C77.2633 22.6497 76.4467 22.6659 76.2186 22.5358C75.7777 22.2838 75.4983 21.9914 74.9216 21.8873C74.681 21.8441 74.6928 21.5584 74.4647 21.5014C73.9587 21.375 73.3202 21.3434 72.7913 21.3434C72.446 21.3434 71.9476 21.4348 71.6045 21.4023C71.5414 21.3964 71.6052 21.2972 71.6045 21.2452ZM88.0215 5.37175C88.0229 5.90161 88.0985 6.47571 88.1006 7.03052C88.104 7.74453 88.0347 8.38418 88.0382 9.10391C88.0417 9.87033 88.1179 10.7169 88.1179 11.4664C88.1179 12.0757 87.9696 13.2468 88.0327 13.7528C88.1131 14.4034 88.1609 14.5162 89.347 14.5162C89.921 14.5162 90.6988 14.0746 91.2721 13.6283C91.6645 13.3229 91.6056 12.7956 91.756 12.5675C91.9778 12.2322 92.357 11.9256 92.4361 11.5364C92.5373 11.0357 92.2933 10.6225 92.7383 10.3022C92.9137 10.1756 93.0794 8.7381 93.0794 8.42178C93.0794 7.9709 92.4478 7.30228 91.722 6.70406C91.2257 6.29472 90.6302 5.92734 90.3765 5.64695C89.9113 5.13357 89.5633 4.90834 89.0122 4.816C88.0056 4.64739 88.0209 4.7167 88.0215 5.37175ZM82.7072 33.5862C82.5194 34.1425 83.0906 34.3697 83.7665 34.6973C84.441 35.0248 85.2216 35.4532 85.9564 35.905C87.2001 36.6693 88.0465 38.0643 88.8555 39.4379C89.2721 39.1057 88.9782 37.5574 89.2118 36.6298C89.2617 36.4312 89.5474 36.2877 89.5744 36.0865C89.6701 35.3653 89.6936 34.6318 89.5744 33.9127C89.5293 33.6444 89.1834 33.4484 89.0912 33.1879C89.0184 32.9836 89.0357 32.7605 89.0912 32.5536C89.1584 32.3009 89.4226 32.0857 89.4531 31.8288C89.5446 31.077 89.6042 30.3107 89.4531 29.5646C89.3962 29.2828 88.8208 29.1237 88.8493 28.8398C88.8735 28.6048 89.5508 28.622 89.5744 28.387C89.6403 27.7136 89.329 27.0637 89.2181 26.394C88.9671 24.8884 88.8208 23.3739 88.6136 21.8648C88.5394 21.3209 88.2496 20.7732 88.3723 20.2343C88.7501 19.4991 89.0954 18.7439 89.4593 18.1509C89.6368 17.9761 89.8711 18.3175 90.0513 18.4906C90.6399 19.0543 91.4219 19.7519 91.591 20.4563C91.7983 21.3201 91.1744 22.0843 91.3075 22.9564C91.3463 23.2108 91.869 23.1652 91.9896 23.4047C92.5664 24.5493 93.035 25.7326 93.3185 26.9375C93.6416 28.3105 93.7456 29.7107 93.8017 31.1046C93.826 31.7108 93.7913 32.3347 93.5598 32.916C93.2298 33.7463 92.5421 34.4082 92.2011 35.2104C91.844 36.0496 91.729 36.3002 92.913 36.2997C93.3816 36.2992 93.9286 36.3132 94.2904 36.4489C95.2596 36.8123 95.6596 37.6504 96.5795 38.0794C96.7785 38.1719 97.0384 38.3003 97.3122 38.4152C98.6169 38.9632 98.7604 38.5847 99.0321 37.7279C99.3905 36.595 99.4814 35.5733 99.7136 34.456C99.8321 33.8893 99.8072 33.308 99.8405 32.7351C99.8876 31.9183 99.9694 31.1056 99.9133 30.2888C99.8876 29.9077 99.8904 29.4908 99.5569 29.2022C99.3067 28.9854 98.5684 29.2069 98.4699 28.9303C98.3348 28.5512 99.064 28.2357 99.0738 27.8431C98.8741 26.7841 98.6911 25.8364 98.6675 24.7925C98.6405 23.5619 98.289 24.1813 97.7448 23.699C97.4162 23.4075 97.3136 23.1505 97.2623 22.7706C97.1105 21.6588 97.3254 20.4284 97.0987 19.3239C96.9975 18.83 96.6897 18.3428 96.2537 17.9651C96.0956 17.8282 95.8058 18.0319 95.6977 17.8699C95.5168 17.5986 96.0727 17.4128 95.8606 17.1544C95.3677 16.5541 94.3362 16.0959 93.5542 15.7051C93.3199 15.5879 92.9075 15.8545 92.7085 15.7051C92.5095 15.5557 92.5144 15.0969 92.7085 14.9441C94.1012 14.7929 94.818 14.3011 95.4981 13.7123C96.4207 12.914 96.872 12.0242 97.3344 11.0265C97.548 10.5666 97.2748 10.0292 97.3462 9.54539C97.4786 8.65013 98.1046 7.83713 97.896 6.95009C97.593 5.66011 96.7452 4.50411 95.7705 3.41731C95.2291 2.81399 94.3882 2.27925 93.5119 1.96797C92.7806 1.70822 92.1685 1.92555 91.392 1.75517C90.4929 1.55791 89.7727 1.1807 88.8555 1.0397C88.1415 0.929894 87.3921 1.15336 86.6815 1.0305C86.2379 0.953758 86.1658 0.579711 85.7152 0.527822C85.4046 0.491948 85.0871 0.829486 84.7738 0.849348C82.6074 0.986971 80.8293 0.672263 78.6733 0.885587C78.3517 0.917459 78.4432 1.18652 78.7101 1.32492C79.1087 1.5318 79.7146 1.42963 80.1596 1.57402C80.9582 1.83356 81.5724 2.18248 82.1645 2.66102C82.6546 3.05679 82.8542 3.497 83.2993 4.11036C83.4823 4.36179 84.0084 3.87899 84.3869 3.83859C84.8646 3.78743 85.1966 3.77781 85.4982 4.0606C85.7692 4.31427 85.2084 4.65234 84.8888 4.87117C84.2421 5.31331 83.8019 5.54748 83.2299 5.84103C82.839 6.04198 82.1464 6.22239 81.856 6.61493C81.2113 7.48581 81.9759 8.47621 82.2241 9.45481C82.3149 9.81173 82.4189 10.1607 82.527 10.5147C82.8778 11.6657 82.7599 12.6238 82.9734 13.7936C83.0428 14.1718 83.4005 14.5012 83.4566 14.8806C83.5232 15.3316 83.415 15.6638 83.5052 16.1125C83.5426 16.3036 83.7513 16.5061 83.8192 16.6923C84.1201 17.5207 84.3849 18.561 84.423 19.4191C84.5464 22.2257 84.3245 24.9753 84.5131 27.7802C84.5304 28.0355 85.0414 28.1364 85.1114 28.387C85.2202 28.7753 84.875 29.2214 84.701 29.5963C83.9863 31.1311 83.1481 32.2796 82.7072 33.5862Z" fill="white"/>
</svg>
