<svg width="21" height="20" viewBox="0 0 21 20" fill="none" xmlns="http://www.w3.org/2000/svg">
<path d="M12.7955 20H15.8587C18.6712 20 20.9824 17.6887 20.9824 14.8763V5.12375C20.9824 2.31125 18.6712 0 15.8587 0H12.7337C12.6718 0 12.6068 0.061875 12.6068 0.12375V19.8762C12.6068 19.9381 12.6687 20 12.7955 20ZM16.6074 9.00062C17.7337 9.00062 18.6062 9.93813 18.6062 10.9994C18.6062 12.1256 17.6687 12.9981 16.6074 12.9981C15.4812 12.9981 14.6087 12.1256 14.6087 10.9994C14.5437 9.87625 15.4812 9.00062 16.6074 9.00062ZM10.4812 0H6.10617C3.29367 0 0.982422 2.31125 0.982422 5.12375V14.8763C0.982422 17.6887 3.29367 20 6.10617 20H10.4812C10.543 20 10.608 19.9381 10.608 19.8762V0.12375C10.608 0.061875 10.5462 0 10.4812 0ZM9.04555 18.3756H6.10617C5.64642 18.3764 5.19104 18.2864 4.76614 18.1108C4.34124 17.9352 3.95518 17.6774 3.63009 17.3523C3.30499 17.0272 3.04726 16.6412 2.87166 16.2163C2.69606 15.7914 2.60606 15.336 2.6068 14.8763V5.12375C2.60606 4.664 2.69606 4.20862 2.87166 3.78372C3.04726 3.35882 3.30499 2.97276 3.63009 2.64767C3.95518 2.32257 4.34124 2.06484 4.76614 1.88924C5.19104 1.71364 5.64642 1.62363 6.10617 1.62437H8.98367L9.04555 18.3756ZM4.10742 5.99937C4.10742 7.06063 4.92117 7.87437 5.98242 7.87437C7.04367 7.87437 7.85742 7.06063 7.85742 5.99937C7.85742 4.93813 7.04367 4.12437 5.98242 4.12437C4.92117 4.12437 4.10742 4.93813 4.10742 5.99937Z" fill="white"/>
</svg>
