<svg width="20" height="19" viewBox="0 0 20 19" fill="none" xmlns="http://www.w3.org/2000/svg">
<path d="M15.5397 15.9664L15.1826 15.0695C15.002 14.6145 14.7214 14.2064 14.3623 13.8737L14.297 13.8136C13.7317 13.2891 12.989 12.9973 12.2176 12.9973H7.10185C6.33051 12.9973 5.58773 13.2891 5.02147 13.8125L4.95617 13.8737C4.59702 14.2064 4.31746 14.6145 4.13585 15.0695L3.77875 15.9664" stroke="white" stroke-width="1.77404" stroke-linecap="round" stroke-linejoin="round"/>
<path d="M12.1848 2.82011C13.5794 4.21469 13.5794 6.47573 12.1848 7.87031C10.7902 9.26489 8.5292 9.26489 7.13462 7.87031C5.74004 6.47573 5.74004 4.21469 7.13462 2.82011C8.5292 1.42552 10.7902 1.42552 12.1848 2.82011" stroke="white" stroke-width="1.77404" stroke-linecap="round" stroke-linejoin="round"/>
</svg>
