<svg width="21" height="20" viewBox="0 0 21 20" fill="none" xmlns="http://www.w3.org/2000/svg">
<path d="M5.41243 1.72C5.48243 1.66 5.55243 1.6 5.60243 1.56C7.16243 0.55 8.98243 0 10.9824 0C12.8624 0 14.6224 0.5 16.1224 1.42C16.2324 1.5 16.5224 1.69 16.6824 1.88C15.2324 0.28 10.9824 3.7 10.9824 3.7C9.48243 2.57 8.15243 1.8 7.14243 1.5C6.29243 1.29 5.71243 1.5 5.44243 1.7L5.41243 1.72ZM18.3224 3.21C18.2724 3.16 18.2224 3.11 18.1824 3.06C17.8224 2.66 17.3624 2.56 16.9824 2.59C16.5924 2.71 14.8824 3.32 12.7824 5.31C12.7824 5.31 15.1524 7.61 16.6024 9.96C18.0524 12.31 18.9124 14.16 18.3824 16.73C19.9824 14.95 20.9824 12.59 20.9824 10C20.9824 7.38 19.9824 5 18.3224 3.21ZM14.7124 10.96C14.0624 10.24 13.1124 9.21 11.8424 7.95C11.5724 7.68 11.2824 7.4 10.9824 7.1C10.9824 7.1 10.5124 7.56 9.91243 8.17C9.14243 8.94 8.15243 9.95 7.59243 10.54C6.61243 11.59 3.79243 14.89 3.63243 16.74C3.63243 16.74 2.98243 15.28 4.38243 11.89C5.28243 9.68 7.98243 6.36 9.13243 5.28C9.13243 5.28 8.10243 4.14 6.80243 3.35L6.75243 3.32C6.12243 2.95 5.44243 2.66 4.78243 2.62C4.11243 2.67 3.69243 3.16 3.69243 3.16C1.94872 5.01024 0.979087 7.45758 0.98243 10C0.98243 12.6522 2.036 15.1957 3.91136 17.0711C4.83995 17.9997 5.94234 18.7362 7.1556 19.2388C8.36885 19.7413 9.66921 20 10.9824 20C13.9124 20 16.5524 18.74 18.3824 16.73C18.3824 16.73 18.1724 15.4 16.8224 13.5C16.5124 13.07 15.3524 11.69 14.7124 10.96Z" fill="white"/>
</svg>
